<svg xmlns="http://www.w3.org/2000/svg" width="27.074" height="27.074" viewBox="0 0 27.074 27.074">
  <g id="globe-americas-duotone" transform="translate(0 -8)">
    <path id="Path_23" data-name="Path 23" d="M26.722,24.616A13.538,13.538,0,1,1,3.056,12.967v2.5a2.729,2.729,0,0,0,.467,1.526c.64.949,1.549,2.3,1.947,2.88A6.266,6.266,0,0,0,6.456,21l.044.039a7.874,7.874,0,0,0,1.728,1.187c.764.385,1.88.991,2.664,1.425a1.741,1.741,0,0,1,.9,1.528v1.747a1.747,1.747,0,0,0,.512,1.235,4.085,4.085,0,0,1,1.235,2.8v1.587a1.146,1.146,0,0,0,1.282,1.138c.1-.011.19-.024.285-.038a1.141,1.141,0,0,0,.937-.86l.77-3.146c.109-.3.178-.612.26-.921a1.3,1.3,0,0,1,.34-.585c.181-.182.4-.4.617-.616a2.536,2.536,0,0,0,.749-1.8,1.664,1.664,0,0,0-.487-1.179l-.748-.746a1.747,1.747,0,0,0-1.235-.509H12.663c-.514-.257-1.172-1.747-1.747-1.747a3.7,3.7,0,0,1-1.655-.391l-.6-.3a.655.655,0,0,1,.085-1.2l1.7-.567a.873.873,0,0,1,.849.169l.507.44a.437.437,0,0,0,.286.109h.308a.437.437,0,0,0,.39-.632l-.851-1.7a.437.437,0,0,1,.086-.507l.541-.527a.437.437,0,0,1,.3-.128h.491a.437.437,0,0,0,.309-.128l.437-.437a.437.437,0,0,0,0-.617l-.256-.256a.437.437,0,0,1,0-.617l.564-.565.256-.255a.873.873,0,0,0,0-1.235h0l-1.332-1.332a.676.676,0,0,0-.521-.2c-.138.009-.276.021-.414.035a.677.677,0,0,0-.609.673.892.892,0,0,1-.633.864.873.873,0,0,1-.632-.058,3.608,3.608,0,0,1-.873-.614L7.437,9.448a13.548,13.548,0,0,1,18.636,6.972l-1.993.172a4.16,4.16,0,0,0-1.5.422,1.313,1.313,0,0,0-.5.445l-1.069,1.6a1.31,1.31,0,0,0,0,1.453l.983,1.474a1.31,1.31,0,0,0,.575.479l1.12.551Z" transform="translate(0 0)" fill="#d9bc84" opacity="0.4"/>
    <path id="Path_24" data-name="Path 24" d="M70.486,48.886a1.747,1.747,0,0,0-1.235-.511H65.607c-.514-.257-1.172-1.747-1.747-1.747a3.7,3.7,0,0,1-1.655-.391l-.6-.3a.655.655,0,0,1,.085-1.2l1.7-.567a.873.873,0,0,1,.849.169l.507.44a.437.437,0,0,0,.286.109h.308a.437.437,0,0,0,.39-.632l-.851-1.7a.437.437,0,0,1,.086-.507l.541-.527a.437.437,0,0,1,.3-.128H66.3a.437.437,0,0,0,.309-.128l.437-.437a.437.437,0,0,0,0-.617l-.256-.256a.437.437,0,0,1,0-.617l.564-.565.256-.255a.873.873,0,0,0,0-1.235h0l-1.332-1.332a.676.676,0,0,0-.521-.2c-.138.009-.276.021-.414.035a.677.677,0,0,0-.609.673.892.892,0,0,1-.633.864.873.873,0,0,1-.632-.058,3.607,3.607,0,0,1-.873-.614L60.381,34.54A13.591,13.591,0,0,0,56,38.059v2.5a2.729,2.729,0,0,0,.467,1.526c.64.949,1.549,2.3,1.947,2.88a6.266,6.266,0,0,0,.986,1.132l.044.039a7.874,7.874,0,0,0,1.728,1.187c.764.385,1.88.991,2.664,1.425a1.741,1.741,0,0,1,.9,1.528v1.747a1.747,1.747,0,0,0,.512,1.235,4.085,4.085,0,0,1,1.235,2.8v1.587a1.146,1.146,0,0,0,1.282,1.138q.143-.017.285-.038a1.141,1.141,0,0,0,.937-.86l.77-3.146c.109-.3.178-.612.26-.921a1.3,1.3,0,0,1,.34-.585c.181-.182.4-.4.617-.616a2.536,2.536,0,0,0,.749-1.8,1.664,1.664,0,0,0-.487-1.179Zm8.53-7.374-1.993.172a4.16,4.16,0,0,0-1.5.422,1.313,1.313,0,0,0-.5.445l-1.069,1.6a1.31,1.31,0,0,0,0,1.453l.983,1.474a1.31,1.31,0,0,0,.575.479l1.12.551,3.037,1.595A13.6,13.6,0,0,0,79.017,41.512Z" transform="translate(-52.944 -25.092)" fill="#d9bc84"/>
  </g>
</svg>
