<svg xmlns="http://www.w3.org/2000/svg" width="34.358" height="34.358" viewBox="0 0 34.358 34.358">
  <g id="hammer-war-duotone" transform="translate(17.179 -1.562) rotate(45)">
    <path id="Path_38" data-name="Path 38" d="M26.5,34.213V47.465a2.209,2.209,0,0,1-2.572,2.178l-10.68-1.78L2.572,49.642A2.209,2.209,0,0,1,0,47.465V34.213a2.209,2.209,0,0,1,2.572-2.178l10.68,1.78,10.68-1.779A2.209,2.209,0,0,1,26.5,34.213Z" transform="translate(0 -29.796)" fill="#979ab3" opacity="0.4"/>
    <path id="Path_39" data-name="Path 39" d="M160,3.651V1.1A1.1,1.1,0,0,1,161.1,0h2.209a1.1,1.1,0,0,1,1.1,1.1V3.651l-2.209.368Zm0,17.023v13.56a1.1,1.1,0,0,0,1.1,1.1h2.209a1.1,1.1,0,0,0,1.1-1.1V20.674l-2.209-.368Z" transform="translate(-148.957 0)" fill="#979ab3"/>
  </g>
</svg>
