<svg id="helmet-battle-duotone" xmlns="http://www.w3.org/2000/svg" width="37.664" height="33.481" viewBox="0 0 37.664 33.481">
  <path id="Path_1" data-name="Path 1" d="M2.11,16.741A1.976,1.976,0,0,0,4.2,14.906V0L.083,14.46A1.9,1.9,0,0,0,2.11,16.741Zm35.508-2.28L33.5,0V14.906a1.976,1.976,0,0,0,2.093,1.835A1.9,1.9,0,0,0,37.618,14.46Z" transform="translate(-0.018)" fill="#979ab3" opacity="0.4"/>
  <path id="Path_2" data-name="Path 2" d="M92.176,27.908,80.744,33.481V16.741l6.278-2.093V12.555H70.281v2.093l6.278,2.093V33.481L65.127,27.908a2.022,2.022,0,0,1-1.067-2.3C64.6,23.327,66.1,19.2,66.1,13.786,66.1,5.908,78.651,0,78.651,0S91.207,5.908,91.207,13.786c0,5.412,1.495,9.541,2.036,11.817a2.022,2.022,0,0,1-1.067,2.3Z" transform="translate(-59.819)" fill="#979ab3"/>
</svg>
