<svg xmlns="http://www.w3.org/2000/svg" width="49.207" height="65" viewBox="0 0 49.207 65">
  <g id="Union_5" data-name="Union 5" fill="none" stroke-linecap="round">
    <path d="M2,55.447V16.16L.5,15.3a1,1,0,0,1-.5-.868V7.58a1,1,0,0,1,.5-.868L6.518,3.275a1,1,0,0,1,.992,0l4.081,2.332L25.605,0l23.6,9.443v46L25.605,65Z" stroke="none"/>
    <path d="M 25.60501289367676 63.92099380493164 L 48.20660018920898 54.77314376831055 L 48.20660018920898 10.11977767944336 L 25.60500526428223 1.077070593833923 L 11.96242046356201 6.535560607910156 L 11.5140905380249 6.714941024780273 L 11.09483051300049 6.475380897521973 L 7.013910293579102 4.143360614776611 L 1.00000011920929 7.579800605773926 L 1.000110149383545 14.43444061279297 L 2.500410079956055 15.29169082641602 L 3.004300117492676 15.57961082458496 L 3.004300117492676 16.15995025634766 L 3.004300117492676 54.77314758300781 L 25.60501289367676 63.92099380493164 M 25.60499954223633 64.99980163574219 L 2.004300117492676 55.44720077514648 L 2.004300117492676 16.15995025634766 L 0.5040000677108765 15.30270099639893 C 0.1926001012325287 15.12450122833252 9.460448779918806e-08 14.79330062866211 9.460448779918806e-08 14.43420124053955 L 9.460448779918806e-08 7.579800605773926 C 9.460448779918806e-08 7.220700740814209 0.1926001012325287 6.889500617980957 0.5040000677108765 6.711300849914551 L 6.517800331115723 3.275100708007813 C 6.671249866485596 3.187350749969482 6.842474937438965 3.143475770950317 7.013700008392334 3.143475770950317 C 7.184925079345703 3.143475770950317 7.356150150299072 3.187350749969482 7.509600162506104 3.275100708007813 L 11.59094047546387 5.607120990753174 L 25.60499954223633 8.178710686479462e-07 L 49.20660018920898 9.442800521850586 L 49.20660018920898 55.44720077514648 L 25.60499954223633 64.99980163574219 Z" stroke="none" fill="#d9bc84"/>
  </g>
</svg>
